<svg xmlns="http://www.w3.org/2000/svg" width="1em" height="1em" viewBox="0 0 24 24">
  <path fill="currentColor"
    d="M12 21q-1.864 0-3.507-.708q-1.643-.709-2.859-1.924t-1.925-2.856T3 12.003t.709-3.51Q4.417 6.85 5.63 5.634t2.857-1.925T11.997 3t3.51.709t2.859 1.924t1.925 2.857T21 12v.989q0 1.263-.868 2.137T18 16q-.894 0-1.63-.49q-.737-.49-1.09-1.306q-.57.821-1.425 1.308T12 16q-1.671 0-2.835-1.164Q8 13.67 8 12t1.165-2.835T12 8t2.836 1.165T16 12v.989q0 .822.589 1.417T18 15t1.412-.594t.588-1.418V12q0-3.35-2.325-5.675T12 4T6.325 6.325T4 12t2.325 5.675T12 20h5v1zm0-6q1.25 0 2.125-.875T15 12t-.875-2.125T12 9t-2.125.875T9 12t.875 2.125T12 15" />
</svg>