<svg xmlns="http://www.w3.org/2000/svg" width="0.96em" height="1em" viewBox="0 0 23 24">
  <path fill="currentColor"
    d="M9.809 13.832a1.233 1.233 0 1 1 .001-2.465a1.233 1.233 0 0 1-.001 2.465m7.005-3.266a12.4 12.4 0 0 1-4.071 2.01l-.088.021a2.84 2.84 0 0 0-1.859-2.656l-.02-.006c.112-.772.176-1.663.176-2.57a19 19 0 0 0-.437-4.055l.023.125C9.626.197 6.984-.585 4.789.396c-3.782 1.681-3.018 5.753-.241 7.159a12.5 12.5 0 0 1 3.85 2.595l-.001-.001a2.84 2.84 0 0 0-1.43 2.455q.005.264.053.511l-.003-.018a19 19 0 0 0-5.519 3.469l.016-.015c-2.349 2.41-1.704 5.088.241 6.503c3.347 2.435 6.488-.263 6.324-3.367a12.5 12.5 0 0 1 .341-4.717l-.02.087c.406.244.894.389 1.417.392h.001a2.8 2.8 0 0 0 1.827-.681l-.004.003a18.7 18.7 0 0 0 5.616 3.007l.133.038c3.261.829 5.256-1.068 5.512-3.46c.435-4.116-3.473-5.491-6.078-3.789z" />
</svg>